<svg xmlns="http://www.w3.org/2000/svg" viewBox="0 0 500 500"><g id="freepik--background-complete--inject-69"><rect y="382.4" width="500" height="0.25" style="fill:#ebebeb"></rect><rect x="392.32" y="398.49" width="45.79" height="0.25" style="fill:#ebebeb"></rect><rect x="322.53" y="401.21" width="50.03" height="0.25" style="fill:#ebebeb"></rect><rect x="443.89" y="389.21" width="19.19" height="0.25" style="fill:#ebebeb"></rect><rect x="52.46" y="390.89" width="43.19" height="0.25" style="fill:#ebebeb"></rect><rect x="104.56" y="390.89" width="25.44" height="0.25" style="fill:#ebebeb"></rect><rect x="131.47" y="395.11" width="41.53" height="0.25" style="fill:#ebebeb"></rect><path d="M237,337.8H43.91a5.71,5.71,0,0,1-5.7-5.71V60.66A5.71,5.71,0,0,1,43.91,55H237a5.71,5.71,0,0,1,5.71,5.71V332.09A5.71,5.71,0,0,1,237,337.8ZM43.91,55.2a5.46,5.46,0,0,0-5.45,5.46V332.09a5.46,5.46,0,0,0,5.45,5.46H237a5.47,5.47,0,0,0,5.46-5.46V60.66A5.47,5.47,0,0,0,237,55.2Z" style="fill:#ebebeb"></path><path d="M453.31,337.8H260.21a5.72,5.72,0,0,1-5.71-5.71V60.66A5.72,5.72,0,0,1,260.21,55h193.1A5.71,5.71,0,0,1,459,60.66V332.09A5.71,5.71,0,0,1,453.31,337.8ZM260.21,55.2a5.47,5.47,0,0,0-5.46,5.46V332.09a5.47,5.47,0,0,0,5.46,5.46h193.1a5.47,5.47,0,0,0,5.46-5.46V60.66a5.47,5.47,0,0,0-5.46-5.46Z" style="fill:#ebebeb"></path><circle cx="156.16" cy="120.09" r="46.77" style="fill:#fafafa"></circle><path d="M61.46,96.92C69.07,87.17,79,80.23,86.39,80.23c4.62,0,7.37,2.73,8.1,7.18,3.39-2.54,6.83-4,9.68-4,5,0,6.83,4.69,5,11.31a21.91,21.91,0,0,1,8.41-2.53c5.14-.29,8,2.4,8.3,6.79a8.29,8.29,0,0,1,3.61-1.26c3-.17,3.74,2.55,1.76,6.07l-.39.65H49.57C50.77,100.94,57.8,97.09,61.46,96.92Z" style="fill:#e6e6e6"></path><path d="M289.88,251.09c8.42-10.78,19.43-18.45,27.57-18.45,5.11,0,8.15,3,9,7.94,3.75-2.8,7.55-4.48,10.7-4.48,5.56,0,7.56,5.19,5.58,12.51a24.29,24.29,0,0,1,9.31-2.79c5.68-.33,8.87,2.65,9.18,7.5a9.36,9.36,0,0,1,4-1.4c3.27-.19,4.13,2.82,1.94,6.72-.14.25-.28.48-.42.72h-90C278.06,255.54,285.83,251.28,289.88,251.09Z" style="fill:#fafafa"></path><path d="M292.11,99.94c12.62-16.15,29.12-27.65,41.33-27.65,7.66,0,12.22,4.52,13.43,11.89,5.62-4.2,11.31-6.72,16-6.72,8.33,0,11.33,7.78,8.37,18.76a36.4,36.4,0,0,1,14-4.18c8.51-.5,13.29,4,13.76,11.24a13.89,13.89,0,0,1,6-2.09c4.91-.28,6.2,4.23,2.92,10.07-.2.37-.42.72-.63,1.08H272.4C274.38,106.61,286,100.23,292.11,99.94Z" style="fill:#e6e6e6"></path><path d="M140.07,157.62a10.87,10.87,0,0,1,1.34-.1c6.56-6.37,13.21-10.44,17.92-10.44,3.4,0,5.26,2.12,5.59,5.72,12.27-12.37,24.93-20.41,33.76-20.41,7.11,0,10.42,5.23,10,13.76,6.08-4.85,11.87-7.76,16.28-7.76,7.74,0,8.94,9,3.93,21.67h0c5-2.83,9.76-4.58,13.83-4.86,8-.57,11.51,4.59,10.45,13a13.38,13.38,0,0,1,6-2.42c4.37-.31,4.86,4.33,1.32,10.54H113.19C120,166.92,131.72,158.68,140.07,157.62Z" style="fill:#f0f0f0"></path><path d="M360.57,194.59a4.51,4.51,0,0,1,.72-.05c3.53-3.43,7.11-5.62,9.65-5.62,1.83,0,2.83,1.14,3,3.07,6.61-6.66,13.43-11,18.18-11,3.83,0,5.61,2.81,5.39,7.4,3.27-2.61,6.39-4.17,8.76-4.17,4.17,0,4.82,4.83,2.12,11.66h0a18.4,18.4,0,0,1,7.44-2.61c4.3-.31,6.2,2.47,5.63,7a7.17,7.17,0,0,1,3.22-1.3c2.35-.17,2.62,2.33.71,5.67H346.09C349.76,199.6,356.07,195.16,360.57,194.59Z" style="fill:#f5f5f5"></path><path d="M170.81,75.75l.37,0c1.84-1.79,3.71-2.93,5-2.93.95,0,1.47.6,1.57,1.61,3.44-3.48,7-5.74,9.48-5.74,2,0,2.93,1.47,2.82,3.87a8.25,8.25,0,0,1,4.57-2.18c2.17,0,2.51,2.52,1.1,6.08h0a9.69,9.69,0,0,1,3.88-1.36c2.25-.16,3.24,1.29,2.94,3.66a3.69,3.69,0,0,1,1.68-.68c1.23-.09,1.37,1.21.37,3H163.25C165.16,78.36,168.46,76.05,170.81,75.75Z" style="fill:#f5f5f5"></path><path d="M60.59,195.13l.37,0c1.85-1.79,3.71-2.93,5-2.93,1,0,1.47.59,1.57,1.6,3.44-3.47,7-5.73,9.48-5.73,2,0,2.93,1.47,2.82,3.87,1.7-1.37,3.33-2.19,4.57-2.19,2.17,0,2.51,2.53,1.1,6.09h0a9.69,9.69,0,0,1,3.88-1.36c2.25-.16,3.24,1.29,2.94,3.65a3.81,3.81,0,0,1,1.68-.68c1.23-.08,1.37,1.22.37,3H53C54.94,197.74,58.24,195.43,60.59,195.13Z" style="fill:#fafafa"></path><path d="M358.34,137.83c-5.69-1.42-9.24-4.35-13.26.6,5.6-3.83,13.05,1.77,13.05,1.77s8.31-4.24,13.17.5C368.19,135.13,364.19,137.41,358.34,137.83Z" style="fill:#e0e0e0"></path><path d="M384.57,154.14c-3.62-.91-5.87-2.77-8.42.38,3.55-2.44,8.29,1.12,8.29,1.12s5.27-2.69,8.36.32C390.82,152.42,388.28,153.87,384.57,154.14Z" style="fill:#e0e0e0"></path><path d="M85.14,133c-4.75-1.19-7.71-3.64-11.07.5C78.75,130.32,85,135,85,135s6.94-3.54,11,.42C93.37,130.77,90,132.67,85.14,133Z" style="fill:#e0e0e0"></path></g><g id="freepik--Character--inject-69"><path d="M274.31,130.05a44.4,44.4,0,0,0-29.85,7.69c-16.05,11.12-36.82,29.81-62.3,59.21-34.6,39.93-95.08,9.2-126,40.22,23.24.62,48.63,17.32,54.34,42.56s44,38.46,68.64,36.59,84.94,32.8,104.52-3.19c14.55-26.75,36.07-97.67,31.45-144a43.25,43.25,0,0,0-38.67-38.82Z" style="fill:#407BFF"></path><path d="M274.31,130.05a44.4,44.4,0,0,0-29.85,7.69c-16.05,11.12-36.82,29.81-62.3,59.21-34.6,39.93-95.08,9.2-126,40.22,23.24.62,48.63,17.32,54.34,42.56s44,38.46,68.64,36.59,84.94,32.8,104.52-3.19c14.55-26.75,36.07-97.67,31.45-144a43.25,43.25,0,0,0-38.67-38.82Z" style="fill:#fff;opacity:0.4"></path><path d="M178.41,316.36l.68,0a41.59,41.59,0,0,1,9.29.56c18.38-28.25,31.81-62.33,43.81-92.31A616.63,616.63,0,0,1,178.41,316.36Z" style="fill:#407BFF;opacity:0.2"></path><path d="M115.1,290.31a39.37,39.37,0,0,0,5.11,6.14c40.14-17.55,82.92-73,99.83-110.38C191.12,231.92,144.4,269.53,115.1,290.31Z" style="fill:#407BFF;opacity:0.2"></path><path d="M246.2,195.47s-13.57,59.95-17.73,80.88c-4.56,22.92,13.05,86.44,13.05,86.44l14-4.14s-11.32-53-4.57-75.23c7.32-24.1,23.89-87,23.89-87Z" style="fill:#407BFF"></path><g style="opacity:0.5"><path d="M246.2,195.47s-13.57,59.95-17.73,80.88c-4.56,22.92,13.05,86.44,13.05,86.44l14-4.14s-11.32-53-4.57-75.23c7.32-24.1,23.89-87,23.89-87Z"></path></g><path d="M230.11,314.35c.89,7.3,9.55,46.72,10.62,50s-3.67,12.9-7.8,17.52c-2.93,3.27,3.56,5,8,1.76,7.38-5.44,12.77-12.69,17.29-15.74,2.78-1.88,1.79-6.9-1.5-10.61-1.65-1.86-6.94-46-7.51-49.1s-13.63,3.42-16.69,9.72C231.13,313,229.22,307,230.11,314.35Z" style="fill:#407BFF"></path><path d="M233.13,323.46a.51.51,0,0,1-.44-.26,29.56,29.56,0,0,1-2.78-6.81.5.5,0,0,1,.41-.58.49.49,0,0,1,.57.41,27.9,27.9,0,0,0,2.12,5.46c2.25-5.31,11.35-9.68,15.33-9.63,1.6,0,2,.81,2.06,1.27a.5.5,0,0,1-1,.18c-.07-.38-.72-.45-1.1-.45h-.08c-4,0-13.52,4.95-14.63,10a.48.48,0,0,1-.41.38Z" style="fill:#fff"></path><path d="M265.11,216.66c-12.65,15-12.34,41-10.21,53.36,5-17.52,11.4-41.37,15.6-57.13C269.12,212.88,267.35,214,265.11,216.66Z" style="opacity:0.2"></path><path d="M254.48,147.33,252.7,150c-.6.93-1.23,1.85-1.83,2.8-1.22,1.88-2.39,3.8-3.54,5.73s-2.27,3.87-3.31,5.85l-1.55,3-.74,1.5-.34.69c0,.07-.08.13-.12.21a8.29,8.29,0,0,0-.23,4.13,33.09,33.09,0,0,0,1.42,5.9,109.47,109.47,0,0,0,5.17,12.41l-5.58,4.11a55.75,55.75,0,0,1-4.93-5.81,56.94,56.94,0,0,1-4.19-6.47,38,38,0,0,1-3.23-7.57,24.06,24.06,0,0,1-.87-4.57,16.35,16.35,0,0,1,.35-5.44c.12-.49.28-1,.44-1.48l.34-1,.64-1.8c.45-1.18.9-2.37,1.41-3.52,1-2.33,2.05-4.61,3.2-6.85s2.4-4.42,3.72-6.57c.67-1.07,1.35-2.14,2.07-3.18.37-.53.72-1.05,1.11-1.57l1.23-1.63Z" style="fill:#407BFF"></path><path d="M245.56,135.89c-3.52,3.52-6.11,8.61-8.2,12.42l11.75,10c4.8-5.4,12.64-16,12.61-21C261.66,129.92,253,128.52,245.56,135.89Z" style="fill:#407BFF"></path><path d="M261.89,195.59s-3.32,56.58-3,77.83c.37,23.27,9,98.34,9,98.34l14.51-2.32s-1.88-70.19,0-93.15c2.09-24.93,7.07-79.82,7.07-79.82Z" style="fill:#407BFF"></path><g style="opacity:0.5"><path d="M261.89,195.59s-3.32,56.58-3,77.83c.37,23.27,9,98.34,9,98.34l14.51-2.32s-1.88-70.19,0-93.15c2.09-24.93,7.07-79.82,7.07-79.82Z"></path></g><path d="M261.55,320.08c.83,7.31,4.79,48.87,5.36,52.31s-4.07,12.37-6.83,15.79,5.28,3.26,10.52,1.67,9-11.22,11.92-12.88,3.13-7.17,1.5-9-1.1-47.65-1.2-50.82-11.82,1.21-15.75,7C263.45,319.41,260.73,312.76,261.55,320.08Z" style="fill:#407BFF"></path><path d="M266.66,329.27a.49.49,0,0,1-.38-.18,46.85,46.85,0,0,1-5-7.46.51.51,0,0,1,.22-.68.5.5,0,0,1,.67.22,45.69,45.69,0,0,0,4.49,6.76c3.57-5,11-8.05,14.5-7.65,1.45.17,2,.85,2.17,1.39a.51.51,0,0,1-.31.64.5.5,0,0,1-.63-.31c-.18-.49-.83-.67-1.34-.73-3.31-.38-10.78,2.79-13.93,7.77a.52.52,0,0,1-.39.23Z" style="fill:#fff"></path><path d="M247.1,195.5l7.67,1.48a6.72,6.72,0,0,1,4.54,3.26l2.11,3.7,5.37-4.52a7,7,0,0,1,4.11-1.62l19.12-.94c.46-3.52.1-15.06,1.42-29.7A175.84,175.84,0,0,1,297.17,135v0a2.23,2.23,0,0,0-1.72-2.83c-.8-.16-1.76-.33-2.84-.51-2.57-.44-5.8-.9-9-1.14a173.47,173.47,0,0,0-18.24-.58c-2.81.15-5.57.49-7.77.81-1.79.27-2.55.21-3.34.4a3.81,3.81,0,0,0-1.79,1.17C249.74,135.82,239.38,152.46,247.1,195.5Z" style="fill:#407BFF"></path><ellipse cx="266.52" cy="154.56" rx="15.93" ry="9.92" transform="matrix(0.13, -0.99, 0.99, 0.13, 78.11, 398.33)" style="fill:#fff;opacity:0.2"></ellipse><path d="M244.53,190.12l5.59-1.28-2.81,7.68s-4.6,1.36-5.47-1.65Z" style="fill:#ffc3bd"></path><polygon points="254.13 191.69 250.17 198.97 247.31 196.52 250.12 188.84 254.13 191.69" style="fill:#ffc3bd"></polygon><path d="M295.39,132.12c-7.43-1.32-10.87,3.5-8.24,12.58a80.28,80.28,0,0,0,8.08,18L307.85,159C305.66,150.21,300.37,133,295.39,132.12Z" style="fill:#407BFF"></path><path d="M280.8,109.47l-6.28,4.22L266,119.45a25.74,25.74,0,0,1,.63,3.22c.57,4.31-.55,8.08-7.47,9,0,0-4.68,5.06,5.9,6.85,13.67,2.31,17.81-4.62,17.81-4.62C277.52,128.75,279.2,116.27,280.8,109.47Z" style="fill:#ffc3bd"></path><path d="M258.91,124c-2.05-1-3.84,3-3.35,4.73s-1.41,0-3.49,2.65,5,13.46,14.76,19.22c8.57-2.84,15.37-7.12,18.3-9.79,2.59-2.36,9.44-10.1,6.67-11s-1.2-4.28-3.86-5.79S270.45,129.71,258.91,124Z" style="fill:#407BFF"></path><path d="M258.91,124c-2.05-1-3.84,3-3.35,4.73s-1.41,0-3.49,2.65,5,13.46,14.76,19.22c8.57-2.84,15.37-7.12,18.3-9.79,2.59-2.36,9.44-10.1,6.67-11s-1.2-4.28-3.86-5.79S270.45,129.71,258.91,124Z" style="fill:#fff;opacity:0.7000000000000001"></path><path d="M257.51,130c1.78,1.87,13.07,3.68,22.72,1.55C271.48,134.3,260.42,134.42,257.51,130Z" style="fill:#407BFF;opacity:0.4"></path><path d="M268.66,141.48s7.12-1,12-4.48C278.2,139.32,275.26,142.21,268.66,141.48Z" style="fill:#407BFF;opacity:0.4"></path><path d="M266,119.45a25.74,25.74,0,0,1,.63,3.22c3.23-.3,7.5-3,7.88-6a12.61,12.61,0,0,0,0-3Z" style="opacity:0.2"></path><path d="M264.64,91.92c-3.73,1.5-6.32,11.7-1.79,14.1S271.73,89.07,264.64,91.92Z" style="fill:#263238"></path><path d="M280.71,103.71c-1.95,7.14-2.73,11.4-7.16,14.51a9.49,9.49,0,0,1-15.13-7.51c-.2-6.73,3-17.27,10.71-19A9.58,9.58,0,0,1,280.71,103.71Z" style="fill:#ffc3bd"></path><path d="M265.13,101.5s-3-2.38-5.68-1.37c0,0-4.48,7.63,4.59,5.24,9.55,4.78,10.49-3.47,10.49-3.47C268.82,99.53,265.13,101.5,265.13,101.5Z" style="fill:#407BFF"></path><path d="M290.4,96.61c3.41,1.7,0,9.25-3.16,11.51-4.29,3.07-6.3,4.08-8.58,2-2.08-1.16-5.53-8.36-1.78-12.65-3.18-2.29-13.93,2.28-17.05-6.79-1.4-4.06-.27-12.5,10.45-7.69.59,4.33,6.76,5.53,11.49,5.37C288.88,88.14,293.7,91.66,290.4,96.61Z" style="fill:#263238"></path><path d="M264.39,93.91c-2.6.73-5.52-1.13-5.08,2a2.67,2.67,0,0,1-2.5,3.29s3.73-.08,3.41-2.52,2.73-.81,5.32-.51S265.85,93.5,264.39,93.91Z" style="fill:#263238"></path><path d="M282,111.29a8.07,8.07,0,0,1-4.72,2.54c-2.29.29-2.69-1.83-1.43-3.82,1.14-1.79,3.7-4.09,5.7-3.48S283.53,109.58,282,111.29Z" style="fill:#ffc3bd"></path><path d="M269.33,103.57c-.12.59-.54,1-.92,1s-.6-.59-.48-1.17.54-1,.92-.95S269.45,103,269.33,103.57Z" style="fill:#fff"></path><path d="M262.56,102.67c-.13.58-.54,1-.92,1s-.6-.59-.48-1.18.53-1,.92-1S262.68,102.08,262.56,102.67Z" style="fill:#fff"></path><path d="M264.54,103.53a22.85,22.85,0,0,1-3.87,4.57,3.38,3.38,0,0,0,2.71,1Z" style="fill:#ed847e"></path><path d="M265.62,111.05a5.22,5.22,0,0,0,3.81-1.39.18.18,0,0,0,0-.25.18.18,0,0,0-.25,0,5,5,0,0,1-4.19,1.21.17.17,0,0,0-.2.15.17.17,0,0,0,.14.2A5.76,5.76,0,0,0,265.62,111.05Z" style="fill:#263238"></path><path d="M272.16,100.14a.4.4,0,0,0,.15-.1.36.36,0,0,0,0-.5,3.38,3.38,0,0,0-3.07-.77.35.35,0,0,0-.23.44.33.33,0,0,0,.43.23,2.67,2.67,0,0,1,2.4.63A.35.35,0,0,0,272.16,100.14Z" style="fill:#263238"></path><path d="M263.54,99.24a.33.33,0,0,0-.27-.18,2.91,2.91,0,0,1-2.22-1.32.34.34,0,0,0-.47-.14.35.35,0,0,0-.15.47h0a3.55,3.55,0,0,0,2.75,1.69.35.35,0,0,0,.39-.32A.34.34,0,0,0,263.54,99.24Z" style="fill:#263238"></path><path d="M289.27,190.56l-7.4-1.1,3.89,8.44s6.74-.21,6.39-3.67Z" style="fill:#ffc3bd"></path><path d="M298.82,137c1.31,2.39,2.37,4.63,3.44,7s2,4.71,2.93,7.13,1.76,4.87,2.49,7.39a76.11,76.11,0,0,1,1.93,7.74l.19,1c.07.38.15.91.21,1.35s.08.93.11,1.39a10.46,10.46,0,0,1,0,1.37,19.45,19.45,0,0,1-.86,5.12,27.05,27.05,0,0,1-4.14,8.15,41.39,41.39,0,0,1-5.6,6.15c-1,.91-2,1.75-3.1,2.57s-2.13,1.53-3.39,2.3l-4.36-5.39c.64-.81,1.41-1.77,2.08-2.68s1.36-1.87,2-2.8a42,42,0,0,0,3.28-5.69,18.61,18.61,0,0,0,1.72-5.39,7.47,7.47,0,0,0,0-2.21,2.41,2.41,0,0,0-.07-.48,3.28,3.28,0,0,0-.11-.45l-.38-1.27a133.43,133.43,0,0,0-4.93-13c-.94-2.16-1.91-4.33-2.9-6.48l-3-6.36Z" style="fill:#407BFF"></path><polygon points="276.41 193.9 279.97 200.7 285.76 197.9 281.87 189.46 276.41 193.9" style="fill:#ffc3bd"></polygon></g></svg>